<svg id="visual" viewBox="0 0 900 600" width="900" height="600" xmlns="http://www.w3.org/2000/svg" xmlns:xlink="http://www.w3.org/1999/xlink" version="1.1"><g stroke-width="1" stroke-linejoin="bevel"><path d="M395 314L516 272L412 230Z" fill="#292e40" stroke="#292e40"></path><path d="M516 272L503 216L412 230Z" fill="#564d65" stroke="#564d65"></path><path d="M395 314L486 379L516 272Z" fill="#434056" stroke="#434056"></path><path d="M590 389L563 267L516 272Z" fill="#434056" stroke="#434056"></path><path d="M516 272L563 267L503 216Z" fill="#3a3a4f" stroke="#3a3a4f"></path><path d="M396 86L336 198L412 230Z" fill="#192231" stroke="#192231"></path><path d="M412 230L336 198L395 314Z" fill="#564d65" stroke="#564d65"></path><path d="M318 410L407 436L395 314Z" fill="#121c2a" stroke="#121c2a"></path><path d="M395 314L407 436L486 379Z" fill="#4c475e" stroke="#4c475e"></path><path d="M535 474L590 389L486 379Z" fill="#00101c" stroke="#00101c"></path><path d="M486 379L590 389L516 272Z" fill="#4c475e" stroke="#4c475e"></path><path d="M265 284L318 410L395 314Z" fill="#00101c" stroke="#00101c"></path><path d="M336 198L265 284L395 314Z" fill="#00101c" stroke="#00101c"></path><path d="M630 193L563 122L503 216Z" fill="#3a3a4f" stroke="#3a3a4f"></path><path d="M503 216L396 86L412 230Z" fill="#4c475e" stroke="#4c475e"></path><path d="M630 193L503 216L563 267Z" fill="#3a3a4f" stroke="#3a3a4f"></path><path d="M674 332L630 193L563 267Z" fill="#564d65" stroke="#564d65"></path><path d="M488 74L396 86L503 216Z" fill="#292e40" stroke="#292e40"></path><path d="M336 198L196 210L265 284Z" fill="#0a1723" stroke="#0a1723"></path><path d="M400 504L535 474L407 436Z" fill="#192231" stroke="#192231"></path><path d="M407 436L535 474L486 379Z" fill="#121c2a" stroke="#121c2a"></path><path d="M563 122L488 74L503 216Z" fill="#212839" stroke="#212839"></path><path d="M724 406L674 332L590 389Z" fill="#292e40" stroke="#292e40"></path><path d="M590 389L674 332L563 267Z" fill="#3a3a4f" stroke="#3a3a4f"></path><path d="M309 472L400 504L407 436Z" fill="#121c2a" stroke="#121c2a"></path><path d="M221 416L309 472L318 410Z" fill="#292e40" stroke="#292e40"></path><path d="M318 410L309 472L407 436Z" fill="#313447" stroke="#313447"></path><path d="M413 0L328 68L396 86Z" fill="#192231" stroke="#192231"></path><path d="M396 86L328 68L336 198Z" fill="#434056" stroke="#434056"></path><path d="M573 600L610 474L535 474Z" fill="#313447" stroke="#313447"></path><path d="M535 474L610 474L590 389Z" fill="#313447" stroke="#313447"></path><path d="M328 68L196 210L336 198Z" fill="#4c475e" stroke="#4c475e"></path><path d="M265 284L221 416L318 410Z" fill="#313447" stroke="#313447"></path><path d="M196 210L185 293L265 284Z" fill="#00101c" stroke="#00101c"></path><path d="M185 293L221 416L265 284Z" fill="#00101c" stroke="#00101c"></path><path d="M674 332L714 222L630 193Z" fill="#4c475e" stroke="#4c475e"></path><path d="M731 72L614 0L563 122Z" fill="#3a3a4f" stroke="#3a3a4f"></path><path d="M488 74L413 0L396 86Z" fill="#434056" stroke="#434056"></path><path d="M513 0L413 0L488 74Z" fill="#121c2a" stroke="#121c2a"></path><path d="M513 0L488 74L563 122Z" fill="#0a1723" stroke="#0a1723"></path><path d="M614 0L513 0L563 122Z" fill="#564d65" stroke="#564d65"></path><path d="M610 474L724 406L590 389Z" fill="#00101c" stroke="#00101c"></path><path d="M674 332L786 285L714 222Z" fill="#4c475e" stroke="#4c475e"></path><path d="M362 600L510 600L400 504Z" fill="#00101c" stroke="#00101c"></path><path d="M400 504L510 600L535 474Z" fill="#212839" stroke="#212839"></path><path d="M738 522L762 424L724 406Z" fill="#121c2a" stroke="#121c2a"></path><path d="M362 600L400 504L309 472Z" fill="#00101c" stroke="#00101c"></path><path d="M731 72L563 122L630 193Z" fill="#121c2a" stroke="#121c2a"></path><path d="M288 600L362 600L309 472Z" fill="#4c475e" stroke="#4c475e"></path><path d="M221 416L207 509L309 472Z" fill="#3a3a4f" stroke="#3a3a4f"></path><path d="M111 473L207 509L221 416Z" fill="#00101c" stroke="#00101c"></path><path d="M724 406L786 285L674 332Z" fill="#0a1723" stroke="#0a1723"></path><path d="M714 222L731 72L630 193Z" fill="#192231" stroke="#192231"></path><path d="M413 0L268 0L328 68Z" fill="#121c2a" stroke="#121c2a"></path><path d="M328 68L195 63L196 210Z" fill="#212839" stroke="#212839"></path><path d="M268 0L195 63L328 68Z" fill="#292e40" stroke="#292e40"></path><path d="M196 210L106 313L185 293Z" fill="#434056" stroke="#434056"></path><path d="M510 600L573 600L535 474Z" fill="#121c2a" stroke="#121c2a"></path><path d="M738 522L724 406L610 474Z" fill="#292e40" stroke="#292e40"></path><path d="M724 406L762 424L786 285Z" fill="#434056" stroke="#434056"></path><path d="M88 162L106 313L196 210Z" fill="#212839" stroke="#212839"></path><path d="M185 293L123 412L221 416Z" fill="#212839" stroke="#212839"></path><path d="M784 99L731 72L714 222Z" fill="#0a1723" stroke="#0a1723"></path><path d="M106 313L123 412L185 293Z" fill="#121c2a" stroke="#121c2a"></path><path d="M207 509L288 600L309 472Z" fill="#4c475e" stroke="#4c475e"></path><path d="M900 320L812 210L786 285Z" fill="#4c475e" stroke="#4c475e"></path><path d="M786 285L812 210L714 222Z" fill="#434056" stroke="#434056"></path><path d="M796 0L693 0L731 72Z" fill="#00101c" stroke="#00101c"></path><path d="M731 72L693 0L614 0Z" fill="#564d65" stroke="#564d65"></path><path d="M663 600L738 522L610 474Z" fill="#434056" stroke="#434056"></path><path d="M812 210L784 99L714 222Z" fill="#4c475e" stroke="#4c475e"></path><path d="M573 600L663 600L610 474Z" fill="#4c475e" stroke="#4c475e"></path><path d="M195 63L88 162L196 210Z" fill="#4c475e" stroke="#4c475e"></path><path d="M0 404L123 412L106 313Z" fill="#564d65" stroke="#564d65"></path><path d="M0 404L111 473L123 412Z" fill="#434056" stroke="#434056"></path><path d="M123 412L111 473L221 416Z" fill="#4c475e" stroke="#4c475e"></path><path d="M207 509L160 600L288 600Z" fill="#313447" stroke="#313447"></path><path d="M268 0L161 0L195 63Z" fill="#4c475e" stroke="#4c475e"></path><path d="M195 63L65 64L88 162Z" fill="#4c475e" stroke="#4c475e"></path><path d="M161 0L138 0L195 63Z" fill="#192231" stroke="#192231"></path><path d="M779 600L806 511L738 522Z" fill="#313447" stroke="#313447"></path><path d="M738 522L806 511L762 424Z" fill="#564d65" stroke="#564d65"></path><path d="M900 379L900 320L786 285Z" fill="#313447" stroke="#313447"></path><path d="M111 473L160 600L207 509Z" fill="#292e40" stroke="#292e40"></path><path d="M138 0L65 64L195 63Z" fill="#292e40" stroke="#292e40"></path><path d="M88 162L0 305L106 313Z" fill="#212839" stroke="#212839"></path><path d="M900 90L796 0L784 99Z" fill="#212839" stroke="#212839"></path><path d="M784 99L796 0L731 72Z" fill="#00101c" stroke="#00101c"></path><path d="M900 379L786 285L762 424Z" fill="#434056" stroke="#434056"></path><path d="M812 210L900 90L784 99Z" fill="#00101c" stroke="#00101c"></path><path d="M0 177L0 305L88 162Z" fill="#3a3a4f" stroke="#3a3a4f"></path><path d="M111 473L76 600L160 600Z" fill="#4c475e" stroke="#4c475e"></path><path d="M900 320L900 212L812 210Z" fill="#192231" stroke="#192231"></path><path d="M663 600L779 600L738 522Z" fill="#00101c" stroke="#00101c"></path><path d="M806 511L900 379L762 424Z" fill="#313447" stroke="#313447"></path><path d="M900 524L900 379L806 511Z" fill="#121c2a" stroke="#121c2a"></path><path d="M0 82L0 177L88 162Z" fill="#4c475e" stroke="#4c475e"></path><path d="M0 305L0 404L106 313Z" fill="#292e40" stroke="#292e40"></path><path d="M900 212L900 90L812 210Z" fill="#121c2a" stroke="#121c2a"></path><path d="M0 503L76 600L111 473Z" fill="#434056" stroke="#434056"></path><path d="M0 0L0 82L65 64Z" fill="#00101c" stroke="#00101c"></path><path d="M65 64L0 82L88 162Z" fill="#212839" stroke="#212839"></path><path d="M0 404L0 503L111 473Z" fill="#434056" stroke="#434056"></path><path d="M900 600L900 524L806 511Z" fill="#3a3a4f" stroke="#3a3a4f"></path><path d="M900 90L900 0L796 0Z" fill="#192231" stroke="#192231"></path><path d="M138 0L0 0L65 64Z" fill="#121c2a" stroke="#121c2a"></path><path d="M779 600L900 600L806 511Z" fill="#313447" stroke="#313447"></path><path d="M0 503L0 600L76 600Z" fill="#313447" stroke="#313447"></path></g></svg>